<svg xmlns="http://www.w3.org/2000/svg" width="597" height="454" viewBox="0 0 597 454"><defs><style>.cls-1{fill:#fff;fill-rule:evenodd;opacity:.5}</style></defs><path class="cls-1" d="M298.5 454C133.907 454 0 320.091 0 155.5A296.694 296.694 0 0 1 43.8 0h57.342a250.134 250.134 0 0 0-54.01 155.5c0 138.6 112.765 251.368 251.368 251.368S549.868 294.1 549.868 155.5a252.778 252.778 0 0 0-7.179-59.92 23.563 23.563 0 1 1 45.78-11.18A299.632 299.632 0 0 1 597 155.5C597 320.091 463.093 454 298.5 454z"/></svg>