<svg xmlns="http://www.w3.org/2000/svg" width="14" height="14" viewBox="0 0 14 14"><defs><style>.cls-1{fill:#fff;fill-rule:evenodd}</style></defs><path id="_" data-name="ï€" class="cls-1" d="M3.355 12.821h-.989v-1.183H1.183v-.99l.841-.841L4.2 11.98zm4.834-8.578a.217.217 0 0 1-.065.157L3.115 9.41a.216.216 0 0 1-.157.065.194.194 0 0 1-.2-.2.217.217 0 0 1 .065-.157L7.829 4.1a.217.217 0 0 1 .157-.065.194.194 0 0 1 .203.208zM7.69 2.468L0 10.159V14h3.845l7.691-7.691zm6.31.887a1.229 1.229 0 0 0-.342-.841L11.489.351A1.2 1.2 0 0 0 10.648 0a1.16 1.16 0 0 0-.832.351L8.282 1.876l3.845 3.845 1.534-1.534A1.19 1.19 0 0 0 14 3.355z"/></svg>