<svg xmlns="http://www.w3.org/2000/svg" width="18" height="18" viewBox="0 0 18 18"><defs><style>.cls-1{fill:#67717c;fill-rule:evenodd}</style></defs><path class="cls-1" d="M13.775 18a3.441 3.441 0 0 1-1.144-.195A20.285 20.285 0 0 1 .179 5.005a3.5 3.5 0 0 1 1.2-3.855l1-.768a2.048 2.048 0 0 1 2.981.679L7.137 4.52l.034.32a1.031 1.031 0 0 1-.281.71l-.346.377a2.446 2.446 0 0 0-.37 2.764 7.179 7.179 0 0 0 3.12 3.122 2.552 2.552 0 0 0 2.762-.37l.385-.355a1.067 1.067 0 0 1 .712-.27h.171l.283.106 3.308 1.7a1.99 1.99 0 0 1 .509 3.176l-1.147 1.167A3.537 3.537 0 0 1 13.775 18z"/></svg>