<svg xmlns="http://www.w3.org/2000/svg" width="248" height="136" viewBox="0 0 248 136"><defs><style>.cls-1,.cls-2{fill:#fff;fill-rule:evenodd}.cls-2{fill:#178fe6}</style></defs><path class="cls-1" d="M227.71 136a104.134 104.134 0 0 0-2.271-36.891 9.788 9.788 0 1 1 19.017-4.646A124.469 124.469 0 0 1 248 124c0 4.048-.2 8.05-.583 12H227.71zm-25.394-57.684a32.671 32.671 0 0 1-32.632-32.632 32.277 32.277 0 0 1 3.241-13.927A104.409 104.409 0 0 0 19.579 124a104.923 104.923 0 0 0 .711 12H.583C.2 132.05 0 128.048 0 124A123.776 123.776 0 0 1 186.721 17.2a32.212 32.212 0 0 1 15.6-4.148 32.632 32.632 0 0 1-.005 65.264z"/><path id="_" data-name="ï€" class="cls-2" d="M196.751 54.978h-1.695V52.95h-2.029v-1.7l1.442-1.442 3.724 3.724zm8.288-14.7a.372.372 0 0 1-.111.269l-8.589 8.588a.37.37 0 0 1-.269.111.333.333 0 0 1-.349-.349.372.372 0 0 1 .111-.269l8.589-8.588a.37.37 0 0 1 .269-.111.333.333 0 0 1 .349.344zm-.856-3.042L191 50.415v6.592h6.592l13.184-13.184zm10.823 1.521a2.105 2.105 0 0 0-.587-1.442L210.7 33.6a2.052 2.052 0 0 0-1.441-.6 1.992 1.992 0 0 0-1.427.6l-2.63 2.615 6.592 6.592 2.63-2.63a2.039 2.039 0 0 0 .582-1.425z"/></svg>